<svg xmlns="http://www.w3.org/2000/svg" width="24" height="24" viewBox="0 0 24 24">
  <g id="people_alt-24px" opacity="0.5">
    <g id="Bounding_Box">
      <rect id="사각형_298" data-name="사각형 298" width="24" height="24" fill="none"/>
    </g>
    <g id="Flat">
      <g id="그룹_462" data-name="그룹 462">
        <g id="그룹_458" data-name="그룹 458">
          <path id="패스_6400" data-name="패스 6400" d="M16.67,13.13A4.651,4.651,0,0,1,19,17v3h4V17C23,14.82,19.43,13.53,16.67,13.13Z" fill="#fff" fill-rule="evenodd"/>
        </g>
        <g id="그룹_459" data-name="그룹 459">
          <circle id="타원_340" data-name="타원 340" cx="4" cy="4" r="4" transform="translate(5 4)" fill="#fff"/>
        </g>
        <g id="그룹_460" data-name="그룹 460">
          <path id="패스_6401" data-name="패스 6401" d="M15,12a4,4,0,0,0,0-8,4.178,4.178,0,0,0-1.33.24,5.98,5.98,0,0,1,0,7.52A4.178,4.178,0,0,0,15,12Z" fill="#fff" fill-rule="evenodd"/>
        </g>
        <g id="그룹_461" data-name="그룹 461">
          <path id="패스_6402" data-name="패스 6402" d="M9,13c-2.67,0-8,1.34-8,4v3H17V17C17,14.34,11.67,13,9,13Z" fill="#fff" fill-rule="evenodd"/>
        </g>
      </g>
    </g>
  </g>
</svg>
