<svg id="baseline-label-24px" xmlns="http://www.w3.org/2000/svg" width="40" height="40" viewBox="0 0 40 40">
  <path id="패스_324" data-name="패스 324" d="M40,0H0V40H40Z" fill="none"/>
  <path id="합치기_3" data-name="합치기 3" d="M-12556.655-14302.865l-4.226-5.758a3.151,3.151,0,0,1,0-3.755l4.226-5.754a3.4,3.4,0,0,1,2.725-1.369h.015l15.05.011h.019a3.338,3.338,0,0,1,3.349,3.264v11.453a3.337,3.337,0,0,1-3.349,3.263h-.019l-15.064.011A3.406,3.406,0,0,1-12556.655-14302.865Zm1.61-14.08-4.223,5.75a1.169,1.169,0,0,0,0,1.391l4.227,5.753a1.37,1.37,0,0,0,1.11.55h.007l15.062-.011h.015a1.33,1.33,0,0,0,1.351-1.279v-11.413a1.332,1.332,0,0,0-1.351-1.283h-.019l-15.064-.011A1.378,1.378,0,0,0-12555.045-14316.945Zm9.046,7.859-2.293,2.293-1.413-1.413,2.293-2.293-2.293-2.292,1.413-1.416,2.293,2.293,2.292-2.293,1.416,1.416-2.293,2.292,2.293,2.293-1.416,1.413Z" transform="translate(12568.498 14330.5)" fill="#666"/>
</svg>
