<svg id="baseline-language-24px" xmlns="http://www.w3.org/2000/svg" width="22" height="22" viewBox="0 0 22 22">
  <path id="패스_330" data-name="패스 330" d="M0,0H22V22H0Z" fill="none"/>
  <path id="패스_331" data-name="패스 331" d="M10.242,2A8.25,8.25,0,1,0,18.5,10.25,8.246,8.246,0,0,0,10.242,2Zm5.717,4.95H13.525a12.911,12.911,0,0,0-1.139-2.937A6.624,6.624,0,0,1,15.959,6.95ZM10.25,3.683A11.621,11.621,0,0,1,11.826,6.95H8.674A11.622,11.622,0,0,1,10.25,3.683ZM3.864,11.9a6.453,6.453,0,0,1,0-3.3H6.653a13.625,13.625,0,0,0-.115,1.65,13.625,13.625,0,0,0,.115,1.65Zm.677,1.65H6.975a12.91,12.91,0,0,0,1.139,2.937A6.589,6.589,0,0,1,4.541,13.55Zm2.434-6.6H4.541A6.589,6.589,0,0,1,8.113,4.013,12.911,12.911,0,0,0,6.975,6.95Zm3.275,9.867A11.621,11.621,0,0,1,8.674,13.55h3.151A11.621,11.621,0,0,1,10.25,16.817ZM12.18,11.9H8.319a12.138,12.138,0,0,1-.132-1.65A12.033,12.033,0,0,1,8.319,8.6H12.18a12.033,12.033,0,0,1,.132,1.65A12.138,12.138,0,0,1,12.18,11.9Zm.206,4.587a12.911,12.911,0,0,0,1.139-2.937h2.434A6.624,6.624,0,0,1,12.387,16.487Zm1.46-4.587a13.625,13.625,0,0,0,.115-1.65,13.625,13.625,0,0,0-.115-1.65h2.788a6.453,6.453,0,0,1,0,3.3Z" transform="translate(0.75 0.75)" fill="#111"/>
</svg>
