<svg xmlns="http://www.w3.org/2000/svg" width="24" height="24" viewBox="0 0 24 24">
  <g id="그룹_17938" data-name="그룹 17938" transform="translate(909 -805)">
    <path id="패스_685" data-name="패스 685" d="M0,0H24V24H0Z" transform="translate(-909 805)" fill="none"/>
    <path id="빼기_7" data-name="빼기 7" d="M7.6,20.93h0l-1.89-3.179L2.1,16.93l.339-3.69L0,10.461l2.44-2.79L2.1,3.991l3.61-.81L7.6,0,11,1.461,14.4,0l1.89,3.181L19.9,4l-.339,3.68L22,10.461l-2.44,2.779.339,3.68-3.61.82L14.4,20.921,11,19.461,7.6,20.93ZM6.41,9.471,5,10.88l4,4,8-8L15.59,5.46,9,12.05,6.41,9.471h0Z" transform="translate(-908 806.54)" fill="#111"/>
  </g>
</svg>
