<svg id="baseline-arrow_drop_down-24px" xmlns="http://www.w3.org/2000/svg" width="20" height="20" viewBox="0 0 20 20">
  <path id="패스_1975" data-name="패스 1975" d="M0,0H20V20H0Z" fill="none"/>
  <path id="다각형_3" data-name="다각형 3" d="M4.646.354a.5.5,0,0,1,.707,0L9.146,4.146A.5.5,0,0,1,8.793,5H1.207a.5.5,0,0,1-.354-.854Z" transform="translate(15 17) rotate(180)" fill="#999"/>
  <path id="다각형_4" data-name="다각형 4" d="M4.646.354a.5.5,0,0,1,.707,0L9.146,4.146A.5.5,0,0,1,8.793,5H1.207a.5.5,0,0,1-.354-.854Z" transform="translate(5 3)" fill="#999"/>
</svg>
