<svg xmlns="http://www.w3.org/2000/svg" width="24" height="24" viewBox="0 0 24 24">
  <g id="그룹_17941" data-name="그룹 17941" transform="translate(909 -455)">
    <path id="패스_819" data-name="패스 819" d="M0,0H24V24H0ZM0,0H24V24H0ZM0,0H24V24H0Z" transform="translate(-909 455)" fill="none"/>
    <path id="패스_820" data-name="패스 820" d="M18.2,0H3.8V1.8H18.2ZM3.8,21.6H18.2V19.8H3.8Zm14.4-18H3.8A1.805,1.805,0,0,0,2,5.4V16.2A1.805,1.805,0,0,0,3.8,18H18.2A1.805,1.805,0,0,0,20,16.2V5.4A1.805,1.805,0,0,0,18.2,3.6ZM11,6.075A2.025,2.025,0,1,1,8.975,8.1,2.028,2.028,0,0,1,11,6.075ZM15.5,15.3h-9V13.95c0-1.5,3-2.25,4.5-2.25s4.5.747,4.5,2.25Z" transform="translate(-908 456)" fill="#fff"/>
  </g>
</svg>
