<svg id="baseline-arrow_drop_down_circle-24px" xmlns="http://www.w3.org/2000/svg" width="24" height="24" viewBox="0 0 24 24">
  <path id="패스_1976" data-name="패스 1976" d="M0,0H24V24H0Z" fill="none"/>
  <path id="빼기_1" data-name="빼기 1" d="M10,20A10,10,0,1,1,20,10,10.011,10.011,0,0,1,10,20Zm-.156-9.68h.762l1.233,4.224H13.9l1.25-4.224H17v-2H15.746L16.432,6H14.176l-.6,2.32h-1.59L11.312,6H9.1L8.449,8.32H6.868L6.256,6H4l.691,2.32H3v2H5.286l1.258,4.224h2.08l1.22-4.223Zm-2.212.9v0L7.4,10.32h.49l-.252.892Zm5.184,0v0l-.257-.892h.491l-.232.892Z" transform="translate(2 2)" fill="#495ef4"/>
</svg>
