<?xml version="1.0"?>
<svg width="24" height="24" xmlns="http://www.w3.org/2000/svg" xmlns:svg="http://www.w3.org/2000/svg">
 <g class="layer">
  <title>Layer 1</title>
  <path d="m23.95,5.54l-8.41,8.42a5.01,5.01 0 0 1 -7.08,0l-8.41,-8.42c-0.02,0.16 -0.05,0.3 -0.05,0.46l0,12a5.01,5.01 0 0 0 5,5l14,0a5.01,5.01 0 0 0 5,-5l0,-12c0,-0.16 -0.03,-0.3 -0.05,-0.46z" fill="#ffffff" id="svg_1"/>
  <path d="m14.12,12.55l9.14,-9.14a4.99,4.99 0 0 0 -4.26,-2.41l-14,0a4.99,4.99 0 0 0 -4.26,2.41l9.14,9.14a3.01,3.01 0 0 0 4.24,0z" fill="#ffffff" id="svg_2" transform="matrix(1 0 0 1 0 0)"/>
 </g>
</svg>