<svg xmlns="http://www.w3.org/2000/svg" width="380" height="299.423" viewBox="0 0 380 299.423">
  <path id="합치기_4" data-name="합치기 4" d="M-11912.661-13497.4c-.524-24.667,19.16-74.51,31.24-109.323-12.047.05-31.716.442-39.189-2.934-13.866-2.655-28.158-29.437-12.653-36.895,14.85,11.948,42.7,7.556,65.1,5.393,14.669-37.092,28.748-71.5,36.6-88.114-15.358,5.654-43.205,9.851-63.529,5.146-26.175-5.885-16.111-29.322-13.866-48.237.476-4.638,6.212-5.982,8.556-2.458,4.475,6.408,18.079,8.867,36.813,8.867,21.882,2.065,50.335-3.377,78.87-8.818,58.235-11.1,116.863-22.176,121.437,30.748-.951,9.146-6.393,26.635-18.947,31.47a4.286,4.286,0,0,1-3.967-6.393c21.356-48.4-85.131-17.8-110.176-16.931,5.786,3.458,9.966,7.162,7.867,12.047-4.113,9.326-17.062,39.369-31.862,75.3,26.667-3.376,43.778-12.915,43.549,24.6,3.032,11.343-36.648,10.228-59.054,13.8-13.687,33.944-39.025,100.424-40.451,120.584a5.351,5.351,0,0,1-5.262,4.917q-1.794.048-3.737.049C-11896.713-13484.582-11910.956-13486.09-11912.661-13497.4Zm228.448-63.168c-17.456,29.88-38.156,59.447-53.5,60.1-49.564,5.523-41.615-33.6-32.108-68.905,10.326-30.748,19.947-70.412,37.632-69.02,11.834,0,26.568,7.376,26.044,14.752-.524,7.261-46.073,93.933-31.813,113.322,40.615-17.964,77.871-127.353,98.474-174.737l-27.028-.95a4.566,4.566,0,0,1-4.589-4.934c1-6.032,12.489-5.229,22.8-4.409,5.048.442,9.851.836,12.948.442,10.8-17.652,15.587-49.253,32.9-47.745,12.768,0,29.961,7.9,29.486,14.768-5.18,11.08-10.785,22.013-16.194,34.485,8.852,0,17.243,0,24.569.476,3.442,0,4.753,2.458,4.59,4.934-1.229,5.982-11.8,5.113-21.423,4.311-4.753-.394-9.293-.819-12.342-.394-23.028,60-47.105,110.815-59.2,170.312-.853,5.557,1.737,4.475,4.376,3.36,1.852-.737,3.655-1.459,4.359,0-.18,2.458-6.785,10.933-8.735,10.933a62.786,62.786,0,0,1-8.064.557C-11694.752-13498.924-11690.933-13532.376-11684.213-13560.567Zm-23.487-84.737c-9.72-1.082-22.7-8.557-21.554-14.9,2.688-11.342,4.36-28.88,19.6-26.552,12.653,2.032,29.06,12.489,20.651,22.405-3.639,3.59-6.736,19.308-16.472,19.308A9.749,9.749,0,0,1-11707.7-13645.3Z" transform="translate(11939.993 13784.005)" fill="#fff"/>
</svg>
