<svg xmlns="http://www.w3.org/2000/svg" width="110" height="110" viewBox="0 0 110 110">
  <g id="그룹_18009" data-name="그룹 18009" transform="translate(0.455 0.454)">
    <rect id="사각형_15066" data-name="사각형 15066" width="110" height="110" transform="translate(-0.455 -0.454)" fill="none"/>
    <g id="그룹_18065" data-name="그룹 18065" transform="translate(-0.455 -0.272)">
      <path id="패스_40944" data-name="패스 40944" d="M86.656,47.552,56.318,23.979c-1.8.819-2.38-10.43-1.591-10.9A22.6,22.6,0,0,0,46.4,9.72a17.714,17.714,0,0,0-7.353.475h0c-.748.224-1.549.436-2.4.633s-1.638.349-2.4.476L24.5,5.759,7.07,31.9l6.876,5.624A34.034,34.034,0,0,0,16.5,42.04a34.5,34.5,0,0,0,5.755,6.573,113.439,113.439,0,0,0,16.949,12.04A114.051,114.051,0,0,0,58.4,69.528a6.155,6.155,0,0,0,6.822-1.163,5.863,5.863,0,0,0,1.493-4.331,5.558,5.558,0,0,0,6.4-.316,5.273,5.273,0,0,0,1.706-3.8c2.644.718,5.216-.177,6.289-2.007a4.619,4.619,0,0,0,.426-3.273,4.8,4.8,0,0,0,4.8-1.478c1.449-1.694.68-4.374.344-5.574,0-.01-.01-.022-.012-.03" transform="translate(0.635 22.335)" fill="#ebc0ac"/>
      <path id="패스_40945" data-name="패스 40945" d="M63.356,62.716c-3.293-1.627-6.745-3.466-10.31-5.544-3.931-2.291-7.544-4.609-10.841-6.88l1.084-1.585c3.286,2.254,6.862,4.545,10.731,6.811,3.283,1.922,6.474,3.651,9.54,5.206a7.108,7.108,0,0,1-.039,1.068,7.367,7.367,0,0,1-.166.923" transform="translate(3.321 25.598)" fill="#d19c84"/>
      <path id="패스_40946" data-name="패스 40946" d="M70.736,59.008c-2.72-1.337-5.568-2.868-8.5-4.625a116.718,116.718,0,0,1-14.3-10.1L49.167,42.8a114.788,114.788,0,0,0,14.056,9.936c2.563,1.536,5.231,2.993,7.93,4.334a5.869,5.869,0,0,1-.2,1.275,5.553,5.553,0,0,1-.22.663" transform="translate(3.761 25.067)" fill="#d19c84"/>
      <path id="패스_40947" data-name="패스 40947" d="M77.309,54.293c-2.815-1.582-5.745-3.36-8.746-5.36A135.442,135.442,0,0,1,54.292,37.992l1.255-1.452a173.986,173.986,0,0,0,14.091,10.8q3.9,2.684,7.647,4.977a4.355,4.355,0,0,1,.124,1.108,4.416,4.416,0,0,1-.1.863" transform="translate(4.26 24.663)" fill="#d19c84"/>
      <path id="패스_40948" data-name="패스 40948" d="M82.167,5.759q-4.876,2.8-9.754,5.6c-.76-.128-1.562-.286-2.4-.481s-1.651-.414-2.4-.639a23.643,23.643,0,0,0-7.355-.481c-3.012.331-5.567,1.878-10.553,4.957a99.3,99.3,0,0,0-8.475,5.917c-2.889,2.2-5.219,4.157-6.876,5.6a2.618,2.618,0,0,0,.481,1.44c2.834,3.832,17.229-2.69,19.026-3.517q15.192,11.911,30.38,23.825a42.551,42.551,0,0,0,9.114-9.755q3.117-3.037,6.236-6.076L82.167,5.759" transform="translate(2.17 22.335)" fill="#f5cfbb"/>
      <path id="패스_40949" data-name="패스 40949" d="M26.488,51.882a4.012,4.012,0,0,0,6.183,3.944c.886-.828,7.462-10.446,3.2-12.365-4.088-1.84-9.024,6.962-9.38,8.421" transform="translate(2.112 25.222)" fill="#f5cfbb"/>
      <path id="패스_40950" data-name="패스 40950" d="M39.675,59.539c-1.279,1.811-4.6,1.64-5.969.213A4.074,4.074,0,0,1,32.96,55.7c.959-2.134,5.366-10.962,8.954-9.062,2.718,1.439,1.173,6.928-2.239,12.9" transform="translate(2.615 25.388)" fill="#f5cfbb"/>
      <path id="패스_40951" data-name="패스 40951" d="M46.337,62.978a4.29,4.29,0,0,1-5.755.586,4.132,4.132,0,0,1-1.173-4.211c2.558-5.543,6.136-9.561,8.527-8.313,2.452,1.278,1.386,6.981-1.6,11.938" transform="translate(3.138 25.787)" fill="#f5cfbb"/>
      <path id="패스_40952" data-name="패스 40952" d="M53.01,65.972c-1.173,1.439-3.936,1.392-5.329.319a3.323,3.323,0,0,1-1.385-3.41c2.558-6.183,5.809-8.155,7.727-7.2,2.283,1.142,1.492,5.917-1.012,10.287" transform="translate(3.701 26.204)" fill="#f5cfbb"/>
      <rect id="사각형_15025" data-name="사각형 15025" width="36.038" height="9.114" rx="1" transform="matrix(0.561, -0.828, 0.828, 0.561, 0, 52.602)" fill="#62688e"/>
      <rect id="사각형_15026" data-name="사각형 15026" width="9.114" height="36.037" rx="1" transform="matrix(0.828, -0.561, 0.561, 0.828, 82.229, 26.934)" fill="#62688e"/>
    </g>
  </g>
</svg>
