<svg id="그룹_18061" data-name="그룹 18061" xmlns="http://www.w3.org/2000/svg" width="109.091" height="109.091" viewBox="0 0 109.091 109.091">
  <rect id="사각형_15064" data-name="사각형 15064" width="109.091" height="109.091" transform="translate(0 0)" fill="none"/>
  <g id="그룹_18062" data-name="그룹 18062" transform="translate(14.999 61.444)">
    <path id="패스_40959" data-name="패스 40959" d="M26.615,8.124a5.478,5.478,0,0,0-1.178-1.188.49.49,0,0,0-.129-.012h0a6.5,6.5,0,0,0-1.521.347,8.554,8.554,0,0,1-2.463.486,3.542,3.542,0,0,1-1.541-.332c-1.366-.653-2.009-2.116-2.526-3.291a5.631,5.631,0,0,0-.818-1.5,5.064,5.064,0,0,0-1.662-.162,5.547,5.547,0,0,1-3.894-1.037A3.88,3.88,0,0,1,9.91,0L0,24.836l11.863-1.785,7.132,10.072,9.3-23.3a10.018,10.018,0,0,1-1.677-1.7" transform="translate(4.61 0) rotate(8)" fill="#62688e"/>
    <path id="패스_40960" data-name="패스 40960" d="M26.615,25a5.479,5.479,0,0,1-1.178,1.188.49.49,0,0,1-.129.012h0a6.5,6.5,0,0,1-1.521-.347,8.555,8.555,0,0,0-2.463-.486,3.543,3.543,0,0,0-1.541.332c-1.366.653-2.009,2.116-2.526,3.291a5.632,5.632,0,0,1-.818,1.5,5.064,5.064,0,0,1-1.662.162,5.547,5.547,0,0,0-3.894,1.037,3.879,3.879,0,0,0-.971,1.434L0,8.287l11.863,1.785L19,0l9.3,23.3A10.018,10.018,0,0,0,26.615,25" transform="translate(78.146 32.8) rotate(172)" fill="#62688e"/>
  </g>
  <path id="패스_40956" data-name="패스 40956" d="M39.235,68.4A4.844,4.844,0,0,1,36.96,67.4a5.033,5.033,0,0,0-2.429-1.039A5.033,5.033,0,0,0,32.1,67.4a4.847,4.847,0,0,1-2.275.992,1.485,1.485,0,0,1-.209-.015c-.808-.115-1.5-.9-2.165-1.668a4.947,4.947,0,0,0-1.986-1.643,2.195,2.195,0,0,0-.625-.083,7.581,7.581,0,0,0-1.978.394,7.418,7.418,0,0,1-1.912.384,1.813,1.813,0,0,1-.767-.149,4.229,4.229,0,0,1-1.593-2.2,4.969,4.969,0,0,0-1.45-2.151,4.991,4.991,0,0,0-2.574-.434,4.218,4.218,0,0,1-2.648-.534,4.223,4.223,0,0,1-.906-2.55,4.983,4.983,0,0,0-.792-2.482A4.975,4.975,0,0,0,7.879,54.13a4.226,4.226,0,0,1-2.4-1.261,4.21,4.21,0,0,1-.152-2.692,5,5,0,0,0-.064-2.614,4.96,4.96,0,0,0-1.917-1.737c-.849-.55-1.727-1.118-1.956-1.9a4.2,4.2,0,0,1,.615-2.61,5.023,5.023,0,0,0,.682-2.54,4.926,4.926,0,0,0-1.341-2.193A4.254,4.254,0,0,1,0,34.2,4.255,4.255,0,0,1,1.347,31.81a4.928,4.928,0,0,0,1.34-2.193,5.023,5.023,0,0,0-.682-2.54,4.2,4.2,0,0,1-.615-2.61c.228-.779,1.106-1.348,1.956-1.9a4.962,4.962,0,0,0,1.917-1.737,5,5,0,0,0,.064-2.614,4.212,4.212,0,0,1,.152-2.692,4.227,4.227,0,0,1,2.4-1.26,4.977,4.977,0,0,0,2.341-1.133,4.984,4.984,0,0,0,.792-2.482,4.223,4.223,0,0,1,.906-2.55,4.217,4.217,0,0,1,2.648-.534,4.992,4.992,0,0,0,2.574-.434,4.971,4.971,0,0,0,1.45-2.151,4.23,4.23,0,0,1,1.593-2.2,1.813,1.813,0,0,1,.767-.149,7.427,7.427,0,0,1,1.912.384,7.585,7.585,0,0,0,1.978.394,2.2,2.2,0,0,0,.625-.083,4.947,4.947,0,0,0,1.986-1.644C28.119.919,28.808.13,29.617.015A1.483,1.483,0,0,1,29.826,0,4.845,4.845,0,0,1,32.1.992a5.032,5.032,0,0,0,2.429,1.039A5.033,5.033,0,0,0,36.96.992,4.845,4.845,0,0,1,39.235,0a1.483,1.483,0,0,1,.209.015c.808.115,1.5.9,2.165,1.668A4.95,4.95,0,0,0,43.6,3.326a2.2,2.2,0,0,0,.625.083A7.586,7.586,0,0,0,46.2,3.015a7.424,7.424,0,0,1,1.912-.384,1.813,1.813,0,0,1,.767.149,4.23,4.23,0,0,1,1.594,2.2,4.969,4.969,0,0,0,1.45,2.151,4.991,4.991,0,0,0,2.574.434,4.219,4.219,0,0,1,2.648.534,4.223,4.223,0,0,1,.906,2.55,4.984,4.984,0,0,0,.792,2.482,4.977,4.977,0,0,0,2.341,1.133,4.225,4.225,0,0,1,2.4,1.26,4.213,4.213,0,0,1,.152,2.692,5,5,0,0,0,.064,2.614,4.961,4.961,0,0,0,1.917,1.737c.849.55,1.727,1.118,1.956,1.9a4.2,4.2,0,0,1-.615,2.61,5.024,5.024,0,0,0-.682,2.54,4.929,4.929,0,0,0,1.34,2.193A4.254,4.254,0,0,1,69.061,34.2a4.255,4.255,0,0,1-1.347,2.388,4.928,4.928,0,0,0-1.34,2.193,5.023,5.023,0,0,0,.682,2.54,4.2,4.2,0,0,1,.615,2.61c-.229.779-1.107,1.348-1.956,1.9A4.961,4.961,0,0,0,63.8,47.563a5,5,0,0,0-.064,2.614,4.213,4.213,0,0,1-.152,2.692,4.228,4.228,0,0,1-2.4,1.261,4.975,4.975,0,0,0-2.341,1.133,4.983,4.983,0,0,0-.792,2.482,4.224,4.224,0,0,1-.906,2.55,4.218,4.218,0,0,1-2.648.534,4.991,4.991,0,0,0-2.574.434,4.97,4.97,0,0,0-1.45,2.151,4.23,4.23,0,0,1-1.593,2.2,1.813,1.813,0,0,1-.767.149,7.419,7.419,0,0,1-1.912-.384,7.58,7.58,0,0,0-1.978-.394,2.194,2.194,0,0,0-.625.083,4.947,4.947,0,0,0-1.986,1.643c-.667.764-1.357,1.553-2.165,1.668a1.508,1.508,0,0,1-.209.015" transform="translate(20.305 10.909)" fill="#edc261"/>
  <circle id="타원_383" data-name="타원 383" cx="26.683" cy="26.683" r="26.683" transform="translate(28.153 18.388)" fill="#fdd06a"/>
  <path id="패스_40957" data-name="패스 40957" d="M159.909,151.02l-15.865,15.865-6.594-6.593-4.467,4.467,11.06,11.06,20.331-20.331Z" transform="translate(-93.843 -117.948)" fill="#fff"/>
</svg>
