<svg xmlns="http://www.w3.org/2000/svg" width="193.251" height="46" viewBox="0 0 193.251 46">
  <g id="logo" transform="translate(10)">
    <path id="패스_117" data-name="패스 117" d="M14.955-10.035a6.021,6.021,0,0,0-1.516-.779,5.254,5.254,0,0,0-1.724-.278,5.03,5.03,0,0,0-2.114.438A5.057,5.057,0,0,0,7.953-9.464,5.513,5.513,0,0,0,6.876-7.705a5.911,5.911,0,0,0-.389,2.149,5.856,5.856,0,0,0,.389,2.142A5.448,5.448,0,0,0,7.953-1.67,5.02,5.02,0,0,0,9.6-.495a5.1,5.1,0,0,0,2.114.431,6.73,6.73,0,0,0,.966-.07q.48-.07,1.022-.181V-3.958a.639.639,0,0,1,.153-.438.579.579,0,0,1,.459-.174H18.1a.783.783,0,0,1,.445.167.519.519,0,0,1,.236.445V2.773a.7.7,0,0,1-.4.612,7.638,7.638,0,0,1-1.446.765,11.883,11.883,0,0,1-1.655.528,14.8,14.8,0,0,1-1.745.313,14.642,14.642,0,0,1-1.717.1,10.556,10.556,0,0,1-2.83-.375A10.517,10.517,0,0,1,6.445,3.649,10.693,10.693,0,0,1,4.3,1.987,10.782,10.782,0,0,1,2.634-.154,10.39,10.39,0,0,1,1.563-2.685a10.555,10.555,0,0,1-.375-2.83,10.556,10.556,0,0,1,.375-2.83A10.646,10.646,0,0,1,2.634-10.89,10.78,10.78,0,0,1,4.3-13.052a10.367,10.367,0,0,1,2.149-1.662,10.9,10.9,0,0,1,2.538-1.071,10.376,10.376,0,0,1,2.83-.382,10.438,10.438,0,0,1,3.15.466,10.813,10.813,0,0,1,2.788,1.342.952.952,0,0,1,.362.369.5.5,0,0,1-.056.521L15.8-10.215a.983.983,0,0,1-.362.3A.549.549,0,0,1,14.955-10.035Zm7.982-1.808a1.015,1.015,0,0,1,.1-.459.924.924,0,0,1,.257-.32,1.119,1.119,0,0,1,.362-.188,1.332,1.332,0,0,1,.4-.063h2.1a.752.752,0,0,1,.556.209,1.787,1.787,0,0,1,.355.528,5.048,5.048,0,0,1,.257.709,6.526,6.526,0,0,0,.264.751q.417-.459.827-.9a6.176,6.176,0,0,1,.883-.793,4.386,4.386,0,0,1,1.036-.563,3.581,3.581,0,0,1,1.286-.216,7.3,7.3,0,0,1,1.342.111,5.793,5.793,0,0,1,1.119.327,6.513,6.513,0,0,1,1.05.549q.521.334,1.133.779a.983.983,0,0,1,.6.82,1.451,1.451,0,0,1-.236.709L35.356-7.7a1.106,1.106,0,0,1-.932.542,1.578,1.578,0,0,1-.626-.153,4.4,4.4,0,0,0-1.217-.869,3.338,3.338,0,0,0-1.411-.285,2.72,2.72,0,0,0-.953.153,2.539,2.539,0,0,0-.744.431,3.94,3.94,0,0,0-.626.668q-.292.389-.584.862V3.719a1.12,1.12,0,0,1-.257.8,1.14,1.14,0,0,1-.855.271H24.022a.953.953,0,0,1-1.085-1.071ZM38.679-4.027a9.2,9.2,0,0,1,.327-2.461,9.109,9.109,0,0,1,.918-2.19,9.078,9.078,0,0,1,1.418-1.836,8.8,8.8,0,0,1,1.843-1.411,9.233,9.233,0,0,1,2.19-.9,9.3,9.3,0,0,1,2.454-.32,9.033,9.033,0,0,1,3.553.7,9,9,0,0,1,2.893,1.933,9.188,9.188,0,0,1,1.947,2.893,8.985,8.985,0,0,1,.716,3.595,9.119,9.119,0,0,1-.327,2.454,9.268,9.268,0,0,1-.918,2.19A8.995,8.995,0,0,1,54.275,2.46a8.995,8.995,0,0,1-1.843,1.418,9.117,9.117,0,0,1-2.176.911,9.1,9.1,0,0,1-2.427.32,9.3,9.3,0,0,1-2.454-.32,9.062,9.062,0,0,1-2.19-.911A9,9,0,0,1,41.342,2.46,8.993,8.993,0,0,1,39.924.618a9.268,9.268,0,0,1-.918-2.19A9.119,9.119,0,0,1,38.679-4.027Zm5.076,0A5.077,5.077,0,0,0,44.04-2.31a4.138,4.138,0,0,0,.807,1.384A3.788,3.788,0,0,0,46.112,0,3.98,3.98,0,0,0,47.788.34,3.818,3.818,0,0,0,49.422,0,3.678,3.678,0,0,0,50.66-.926a4.081,4.081,0,0,0,.779-1.384,5.314,5.314,0,0,0,.271-1.717,5.288,5.288,0,0,0-.271-1.7,4.387,4.387,0,0,0-.779-1.418,3.672,3.672,0,0,0-1.238-.966,3.691,3.691,0,0,0-1.634-.355,3.847,3.847,0,0,0-1.676.355,3.776,3.776,0,0,0-1.265.966,4.448,4.448,0,0,0-.807,1.418A5.053,5.053,0,0,0,43.755-4.027ZM76.8,4.553a.861.861,0,0,1-.382.195,1.89,1.89,0,0,1-.382.042h-2.1A.954.954,0,0,1,73.5,4.7a.924.924,0,0,1-.306-.243,1.441,1.441,0,0,1-.209-.348,2.955,2.955,0,0,1-.139-.4l-.292-1.363a3.424,3.424,0,0,1-.7.911,5.652,5.652,0,0,1-1.2.883,7.546,7.546,0,0,1-1.648.668,7.42,7.42,0,0,1-2.03.264,6.2,6.2,0,0,1-2.809-.612A6.083,6.083,0,0,1,62.1,2.787,7.378,7.378,0,0,1,60.832.319,10.255,10.255,0,0,1,60.4-2.692V-11.8a1.21,1.21,0,0,1,.229-.8.905.905,0,0,1,.73-.271h3.212a1.245,1.245,0,0,1,.82.2,1.053,1.053,0,0,1,.222.786v9.053A2.847,2.847,0,0,0,65.845-1.7a3.181,3.181,0,0,0,.619.946,2.886,2.886,0,0,0,.911.647A2.647,2.647,0,0,0,68.48.131a3.965,3.965,0,0,0,1.085-.167A3.553,3.553,0,0,0,70.65-.557a2.975,2.975,0,0,0,.834-.911A2.548,2.548,0,0,0,71.818-2.8v-9.039a1.316,1.316,0,0,1,.09-.473.75.75,0,0,1,.271-.362,1.272,1.272,0,0,1,.341-.153,1.466,1.466,0,0,1,.369-.042h3.143a1.113,1.113,0,0,1,.862.292,1.117,1.117,0,0,1,.264.779V3.76a1.021,1.021,0,0,1-.118.487.875.875,0,0,1-.327.348Zm4.756-17.188a.86.86,0,0,1,.382-.195,1.89,1.89,0,0,1,.382-.042h2.1a.954.954,0,0,1,.431.09.924.924,0,0,1,.306.243,1.288,1.288,0,0,1,.2.348q.076.195.146.4l.292,1.224a3.315,3.315,0,0,1,.674-.89,5.137,5.137,0,0,1,1.154-.834,7.264,7.264,0,0,1,1.592-.619,7.755,7.755,0,0,1,2.016-.243,6.332,6.332,0,0,1,2.83.612,6.3,6.3,0,0,1,2.114,1.669A7.386,7.386,0,0,1,97.5-8.4a9.815,9.815,0,0,1,.452,3.011V3.719a1.209,1.209,0,0,1-.229.8.905.905,0,0,1-.73.271H93.776a1.245,1.245,0,0,1-.82-.2,1.053,1.053,0,0,1-.223-.786V-5.251a2.475,2.475,0,0,0-.271-1.133,3.313,3.313,0,0,0-.716-.946,3.44,3.44,0,0,0-1.008-.647,2.939,2.939,0,0,0-1.147-.236,2.593,2.593,0,0,0-1.022.222,3.431,3.431,0,0,0-.96.619,3.637,3.637,0,0,0-.737.932,2.723,2.723,0,0,0-.341,1.161V3.76a1.315,1.315,0,0,1-.09.473.751.751,0,0,1-.271.362,1.272,1.272,0,0,1-.341.153,1.466,1.466,0,0,1-.369.042H82.317a1.113,1.113,0,0,1-.862-.292,1.116,1.116,0,0,1-.264-.779V-11.842a1.021,1.021,0,0,1,.118-.487.876.876,0,0,1,.327-.348ZM114.566,3.051a8.715,8.715,0,0,1-.855.744,6.988,6.988,0,0,1-1.043.661,6.311,6.311,0,0,1-1.21.473,5.065,5.065,0,0,1-1.37.181A8.464,8.464,0,0,1,106.6,4.4a8.336,8.336,0,0,1-2.74-1.94,8.937,8.937,0,0,1-1.794-2.9,9.843,9.843,0,0,1-.647-3.588,9.827,9.827,0,0,1,.647-3.595,8.955,8.955,0,0,1,1.794-2.893,8.251,8.251,0,0,1,2.74-1.933,8.536,8.536,0,0,1,3.484-.7,6.851,6.851,0,0,1,1.4.132,5.037,5.037,0,0,1,1.154.382,5.059,5.059,0,0,1,.96.6,7.557,7.557,0,0,1,.827.765v-5.8a1.092,1.092,0,0,1,.271-.751,1.031,1.031,0,0,1,.814-.306h3.129a1.079,1.079,0,0,1,.382.076,1.282,1.282,0,0,1,.369.216,1.115,1.115,0,0,1,.271.334.9.9,0,0,1,.1.431V3.719q0,1.071-1.126,1.071h-2.726a1.07,1.07,0,0,1-.431-.07.684.684,0,0,1-.257-.2,1.4,1.4,0,0,1-.188-.334q-.083-.2-.209-.466Zm-8.135-7.078a5.078,5.078,0,0,0,.285,1.717,4.076,4.076,0,0,0,.814,1.384A3.863,3.863,0,0,0,108.8,0,3.911,3.911,0,0,0,110.45.34a4.4,4.4,0,0,0,1.676-.32,4.271,4.271,0,0,0,1.37-.883,4.391,4.391,0,0,0,.939-1.328,4.356,4.356,0,0,0,.4-1.641v-.195a4.394,4.394,0,0,0-.334-1.7,4.5,4.5,0,0,0-.925-1.418,4.383,4.383,0,0,0-1.391-.966,4.222,4.222,0,0,0-1.731-.355,3.781,3.781,0,0,0-1.648.355,3.849,3.849,0,0,0-1.272.966,4.378,4.378,0,0,0-.814,1.418A5.054,5.054,0,0,0,106.431-4.027Z" transform="translate(-11.188 29.074)" fill="#111"/>
    <g id="그룹_1655" data-name="그룹 1655" transform="translate(124.874)">
      <path id="패스_18" data-name="패스 18" d="M847.619,347.7c.028-5.764-2.6-4.3-6.695-3.781,2.277-5.521,4.264-10.133,4.894-11.57.329-.743-.318-1.321-1.206-1.849,3.849-.13,20.209-4.832,16.926,2.6a.66.66,0,0,0,.612.984c1.929-.749,2.76-3.431,2.911-4.839-1.041-12.115-20.541-2.388-30.775-3.368-2.875,0-4.967-.377-5.654-1.361a.724.724,0,0,0-1.313.378c-.35,2.907-1.89,6.507,2.129,7.411a19.667,19.667,0,0,0,9.761-.786c-1.205,2.546-3.373,7.837-5.627,13.534-3.438.328-7.717,1-10-.832-2.377,1.149-.181,5.262,1.948,5.671,1.142.518,4.167.457,6.019.454-1.857,5.344-4.883,13-4.805,16.788.3,1.934,2.973,2,4.78,1.966a.826.826,0,0,0,.809-.756c.217-3.1,4.108-13.31,6.213-18.527C841.987,349.272,848.079,349.446,847.619,347.7Z" transform="translate(-822.549 -323.108)" fill="#111"/>
      <path id="패스_19" data-name="패스 19" d="M904.065,359.293c-2.343-.356-2.6,2.335-3.011,4.079-.178.976,1.821,2.123,3.313,2.291,1.764.392,2.273-2.339,2.866-2.927C908.526,361.211,906.01,359.6,904.065,359.293Z" transform="translate(-868.679 -344.355)" fill="#111"/>
      <path id="패스_20" data-name="패스 20" d="M915.931,346.143c-1.129-.076-2.415-.076-3.777-.076.832-1.91,1.7-3.59,2.488-5.293.074-1.058-2.565-2.268-4.531-2.268-2.658-.232-3.394,4.621-5.052,7.335-1.435.193-5.255-.78-5.489.6a.7.7,0,0,0,.7.756l4.15.152c-3.163,7.278-8.886,24.086-15.131,26.846-2.187-2.979,4.81-16.293,4.894-17.41.08-1.134-2.186-2.269-4-2.269-2.721-.209-4.2,5.882-5.781,10.6-1.46,5.423-2.685,11.43,4.934,10.587,2.354-.1,5.534-4.642,8.213-9.235-1.109,4.651-1.7,10.231,4.8,9.386.3,0,1.316-1.3,1.343-1.678-.254-.553-1.566.933-1.34-.514,1.859-9.143,5.556-16.951,9.092-26.166,1.427-.189,4.914.777,5.187-.6A.658.658,0,0,0,915.931,346.143Z" transform="translate(-858.26 -332.152)" fill="#111"/>
    </g>
  </g>
</svg>
